<?xml version="1.0" encoding="UTF-8" standalone="no"?>
<!-- Created with Inkscape (http://www.inkscape.org/) -->

<svg
   xmlns:dc="http://purl.org/dc/elements/1.1/"
   xmlns:cc="http://creativecommons.org/ns#"
   xmlns:rdf="http://www.w3.org/1999/02/22-rdf-syntax-ns#"
   xmlns:svg="http://www.w3.org/2000/svg"
   xmlns="http://www.w3.org/2000/svg"
   xmlns:sodipodi="http://sodipodi.sourceforge.net/DTD/sodipodi-0.dtd"
   xmlns:inkscape="http://www.inkscape.org/namespaces/inkscape"
   width="210mm"
   height="297mm"
   id="svg2"
   version="1.1"
   inkscape:version="0.48.5 r10040"
   sodipodi:docname="Logo4.svg">
  <defs
     id="defs4" />
  <sodipodi:namedview
     id="base"
     pagecolor="#ffffff"
     bordercolor="#666666"
     borderopacity="1.0"
     inkscape:pageopacity="0"
     inkscape:pageshadow="2"
     inkscape:zoom="0.35"
     inkscape:cx="566.5011"
     inkscape:cy="475.3088"
     inkscape:document-units="px"
     inkscape:current-layer="layer8"
     showgrid="false"
     inkscape:window-width="1264"
     inkscape:window-height="626"
     inkscape:window-x="0"
     inkscape:window-y="50"
     inkscape:window-maximized="0" />
  <metadata
     id="metadata7">
    <rdf:RDF>
      <cc:Work
         rdf:about="">
        <dc:format>image/svg+xml</dc:format>
        <dc:type
           rdf:resource="http://purl.org/dc/dcmitype/StillImage" />
        <dc:title></dc:title>
      </cc:Work>
    </rdf:RDF>
  </metadata>
  <g
     inkscape:groupmode="layer"
     id="layer3"
     inkscape:label="Logo">
    <path
       style="fill:#000000;display:inline"
       d="M 387.22824,851.86406 C 289.52112,838.6796 185.44163,824.58533 104.0845,764.17708 38.054184,716.22545 19.583072,624.92082 43.47911,549.82741 79.868547,424.47323 169.86615,323.82122 263.06767,236.25602 369.29182,140.58485 489.53305,60.205327 619.2293,0 c 14.678,14.698583 49.43893,8.745994 31.21228,36.436873 5.02349,17.876908 -6.84844,24.904644 -21.68938,30.337192 -30.34482,11.058487 -50.87422,35.225915 -69.94452,60.098835 -42.83465,52.54256 -89.09203,102.4471 -129.86199,156.57184 -12.98833,23.54868 -27.29553,82.5043 -3.76479,92.13653 64.4505,-55.46824 125.18937,-115.50809 189.97205,-170.41266 47.6583,-21.90761 44.15375,49.35135 7.20054,58.72418 -58.06532,42.57758 -116.98111,84.23652 -173.8265,128.33152 21.30432,9.68482 44.35997,33.32478 65.94273,34.89091 46.41169,-27.87147 89.99829,-60.56621 137.67219,-86.20406 45.74237,-11.03263 40.14574,58.7263 -0.96586,60.31088 -34.50927,16.88734 -69.37876,33.02623 -103.90637,49.87628 29.81094,14.96218 57.37439,52.91174 90.20993,51.35862 24.51205,-15.39449 85.17256,-33.53981 71.01622,17.11141 -30.2824,42.44377 -69.91565,-24.34843 -104.80847,-3.00373 -54.77552,6.05619 59.20044,39.7773 3.49786,38.71731 -83.05451,21.22589 -165.65066,44.48273 -248.92545,64.68251 18.44173,-15.44171 65.13343,-27.88666 94.73003,-42.19466 36.17397,-10.26922 -29.52181,-30.61662 -34.38638,-49.3482 -30.15626,-18.65055 -68.48228,24.49612 -102.03976,32.88493 -43.52694,18.15413 16.62723,-16.53797 27.04254,-24.02964 13.52461,-14.04001 47.98477,-22.91023 52.37244,-39.1783 -14.07806,-22.14987 -19.53991,-66.868 -48.43477,-33.20877 -24.45339,13.58174 -56.21045,48.61212 -75.97735,50.38512 32.06517,-29.51677 66.98052,-56.7168 96.03615,-89.10826 -2.99295,-19.0398 -5.97527,-40.34078 8.28473,-41.27951 2.61937,-16.6625 3.86706,-33.0831 -15.66103,-37.53279 -13.81445,13.23679 -27.11236,34.215 -48.92928,11.53216 -25.83657,-3.95321 -30.15257,-25.22801 -9.3531,-35.72311 27.98785,9.78833 62.82296,37.74533 76.51957,-5.2003 C 422.01145,256.42442 470.38652,198.02089 511.73884,135.12626 398.18615,205.20068 292.01253,289.89745 205.31626,391.89635 151.68971,458.14805 98.348576,535.68013 99.891716,624.52292 99.655766,692.23789 157.28636,741.7412 215.6838,764.57661 c 63.56558,27.75968 132.8852,37.09596 200.63351,48.0772 24.56332,15.88489 -7.74589,47.43376 -29.08907,39.21025 z M 499.13302,559.31341 c 31.43094,-11.77921 -34.63023,-34.91732 -41.62286,-55.60495 -10.5276,-15.38247 -54.03105,13.94565 -23.19187,24.67807 18.24011,13.60295 39.77166,47.27564 64.81473,30.92688 z m 46.2304,-19.11023 c 13.16212,-7.37867 53.07897,-12.77258 22.7264,-25.394 -14.20538,-17.73248 -80.24898,-36.34792 -45.91624,-53.48055 30.67401,-4.72819 -6.81124,-39.14663 -20.03684,-24.69771 -29.35935,9.07344 -19.63694,22.91416 2.11683,34.12487 -20.47972,9.70805 -53.03403,21.24421 -19.16555,40.27637 17.80546,11.12228 36.58911,42.67279 60.2754,29.17102 z M 423.12508,486.00805 c 29.11773,-11.17743 -11.20777,-46.5278 -15.18513,-64.01804 -11.71736,8.1042 -33.98784,15.50009 -20.63034,32.24971 8.66968,13.45352 13.90652,55.87253 35.81547,31.76833 z m 39.22681,-25.06592 c 36.65597,-7.78958 -55.02714,-55.1791 -28.51461,-21.28236 8.60208,10.93979 10.89794,40.59034 28.51461,21.28236 z m -37.94518,-46.13589 c 2.91459,-14.2554 31.33211,-26.39765 0.14171,-32.30801 -7.32648,9.17098 -31.98459,-31.63931 -22.21804,0.63431 -1.01474,19.38179 -1.11134,29.10708 22.38233,36.97605 l -0.30755,-5.30235 0,0 z M 393.49698,403.6419 c -28.49348,-33.54913 -19.20104,39.961 0,0 z m 7.54881,-85.52348 c -11.35666,-5.09667 -27.7961,57.77307 -3.3823,43.4467 0.88058,-14.48895 0.92507,-29.1149 3.3823,-43.4467 z M 219.12031,675.79423 c -36.6827,-6.81586 -60.08039,-44.22269 -54.33071,-80.35146 4.85391,-41.36929 32.57748,-78.95834 67.7244,-100.02198 7.3322,23.38217 -2.58759,66.78615 22.41423,91.84763 17.91091,27.757 50.3408,40.74024 76.57338,55.09489 -28.62044,27.10426 -73.27927,41.45303 -112.3813,33.43092 z m 48.14494,-15.84802 c 19.13081,-3.93285 59.32617,-18.56041 17.95568,-28.62757 -37.19036,-23.44764 -63.4882,-65.75602 -63.42982,-109.3345 -31.18061,26.71449 -56.58718,76.11502 -34.08663,115.63918 17.10065,26.1737 51.72883,30.15294 79.56077,22.32289 z M 261.56627,477.6497 c 23.98317,-35.76002 49.60805,-70.61 77.02998,-103.8049 9.81654,22.10219 -39.62119,51.07178 -51.50889,75.33132 -8.3617,8.621 -17.2554,22.52319 -25.52109,28.47358 z"
       id="path3077-2"
       inkscape:connector-curvature="0" />
  </g>
  <g
     inkscape:groupmode="layer"
     id="layer4"
     inkscape:label="ollado">
    <text
       xml:space="preserve"
       style="font-size:100px;font-style:italic;font-variant:normal;font-weight:normal;font-stretch:normal;line-height:125%;letter-spacing:0px;word-spacing:0px;fill:#000000;fill-opacity:1;stroke:none;font-family:FreeSans;-inkscape-font-specification:Sans Italic"
       x="425.71429"
       y="852.36218"
       id="text3123"
       sodipodi:linespacing="125%"><tspan
         sodipodi:role="line"
         id="tspan3125"
         x="425.71429"
         y="852.36218">ollado</tspan></text>
  </g>
  <g
     inkscape:groupmode="layer"
     id="layer5"
     inkscape:label="V">
    <text
       xml:space="preserve"
       style="font-size:450px;font-style:oblique;font-variant:normal;font-weight:bold;font-stretch:normal;line-height:125%;letter-spacing:0px;word-spacing:0px;fill:#000000;fill-opacity:1;stroke:none;font-family:Purisa;-inkscape-font-specification:Purisa Bold Oblique"
       x="-94.949997"
       y="1054.6122"
       id="text3128"
       sodipodi:linespacing="125%"><tspan
         sodipodi:role="line"
         id="tspan3130"
         x="-94.949997"
         y="1054.6122">V</tspan></text>
  </g>
  <g
     inkscape:groupmode="layer"
     id="layer6"
     inkscape:label="illalba">
    <text
       xml:space="preserve"
       style="font-size:100px;font-style:italic;font-variant:normal;font-weight:normal;font-stretch:normal;line-height:125%;letter-spacing:0px;word-spacing:0px;fill:#000000;fill-opacity:1;stroke:none;font-family:FreeSans;-inkscape-font-specification:Sans"
       x="159.42859"
       y="1049.6022"
       id="text3139"
       sodipodi:linespacing="125%"><tspan
         sodipodi:role="line"
         id="tspan3141"
         x="159.42859"
         y="1049.6022">illalba</tspan></text>
  </g>
  <g
     inkscape:groupmode="layer"
     id="layer7"
     inkscape:label="Badminton">
    <text
       xml:space="preserve"
       style="font-size:100px;font-style:italic;font-variant:normal;font-weight:normal;font-stretch:normal;line-height:125%;letter-spacing:0px;word-spacing:0px;fill:#000000;fill-opacity:1;stroke:none;font-family:FreeSans;-inkscape-font-specification:Sans"
       x="-8"
       y="74"
       id="text3144"
       sodipodi:linespacing="125%"><tspan
         sodipodi:role="line"
         id="tspan3146"
         x="-8"
         y="74">Bádminton</tspan></text>
  </g>
  <g
     inkscape:groupmode="layer"
     id="layer8"
     inkscape:label="Cruce">
    <path
       style="fill:#ffffff;display:inline;fill-opacity:1"
       d="M 236.15625 772.625 C 226.72881 787.13284 217.34493 802.47745 209.03125 816.59375 C 224.34278 821.61742 239.9386 825.90012 255.71875 829.625 C 264.76605 814.32402 273.44954 799.7881 281.03125 786.84375 C 265.87328 782.80187 250.88289 778.12429 236.15625 772.625 z "
       id="path3077-2-9" />
  </g>
</svg>
