<?xml version="1.0" encoding="UTF-8" standalone="no"?>
<!-- Created with Inkscape (http://www.inkscape.org/) -->

<svg
   xmlns:dc="http://purl.org/dc/elements/1.1/"
   xmlns:cc="http://creativecommons.org/ns#"
   xmlns:rdf="http://www.w3.org/1999/02/22-rdf-syntax-ns#"
   xmlns:svg="http://www.w3.org/2000/svg"
   xmlns="http://www.w3.org/2000/svg"
   xmlns:sodipodi="http://sodipodi.sourceforge.net/DTD/sodipodi-0.dtd"
   xmlns:inkscape="http://www.inkscape.org/namespaces/inkscape"
   width="210mm"
   height="297mm"
   id="svg2"
   version="1.1"
   inkscape:version="0.48.5 r10040"
   sodipodi:docname="Logo4_2G.svg"
   inkscape:export-filename="/home/jcroce/Work/Badmington/Logo42.png"
   inkscape:export-xdpi="300.01077"
   inkscape:export-ydpi="300.01077">
  <defs
     id="defs4" />
  <sodipodi:namedview
     id="base"
     pagecolor="#000000"
     bordercolor="#666666"
     borderopacity="1.0"
     inkscape:pageopacity="0"
     inkscape:pageshadow="2"
     inkscape:zoom="0.35"
     inkscape:cx="-70.904552"
     inkscape:cy="449.7199"
     inkscape:document-units="px"
     inkscape:current-layer="layer6"
     showgrid="false"
     inkscape:window-width="1264"
     inkscape:window-height="626"
     inkscape:window-x="0"
     inkscape:window-y="50"
     inkscape:window-maximized="0" />
  <metadata
     id="metadata7">
    <rdf:RDF>
      <cc:Work
         rdf:about="">
        <dc:format>image/svg+xml</dc:format>
        <dc:type
           rdf:resource="http://purl.org/dc/dcmitype/StillImage" />
        <dc:title></dc:title>
      </cc:Work>
    </rdf:RDF>
  </metadata>
  <g
     inkscape:groupmode="layer"
     id="layer3"
     inkscape:label="Logo">
    <path
       style="fill:#c50b0b;display:inline;fill-opacity:1;stroke:#808080;stroke-opacity:1;stroke-width:6;stroke-miterlimit:4;stroke-dasharray:none"
       d="M 619.21875 0 C 489.5225 60.205327 369.28665 140.57883 263.0625 236.25 C 169.86098 323.8152 79.858187 424.45832 43.46875 549.8125 C 19.572712 624.90591 38.063434 716.23587 104.09375 764.1875 C 136.42135 788.19097 172.32247 804.86676 210 817.09375 C 218.15842 803.15147 227.44829 787.79643 236.90625 773.09375 C 229.77216 770.45549 222.69166 767.62128 215.6875 764.5625 C 157.29006 741.72709 99.6703 692.24622 99.90625 624.53125 C 98.36311 535.68846 151.68595 458.15795 205.3125 391.90625 C 292.00877 289.90735 398.19731 205.19942 511.75 135.125 C 470.39768 198.01963 422.01664 256.43006 378.46875 317.96875 C 364.77214 360.91438 329.92535 332.94458 301.9375 323.15625 C 281.13803 333.65135 285.47593 354.92179 311.3125 358.875 C 333.12942 381.55784 346.4043 360.58054 360.21875 347.34375 C 379.74684 351.79344 378.49437 368.2125 375.875 384.875 C 361.615 385.81373 364.6008 407.11645 367.59375 426.15625 C 338.53812 458.54771 303.62767 485.76448 271.5625 515.28125 C 291.3294 513.50825 323.07786 478.45674 347.53125 464.875 C 376.42611 431.21577 381.89069 475.94388 395.96875 498.09375 C 391.58108 514.36182 357.11836 523.24124 343.59375 537.28125 C 333.17844 544.77292 273.03556 579.46663 316.5625 561.3125 C 350.11998 552.92369 388.43749 509.7557 418.59375 528.40625 C 423.45832 547.13783 489.17397 567.51203 453 577.78125 C 423.4034 592.08925 376.69173 604.52704 358.25 619.96875 C 441.52479 599.76897 524.13299 576.50714 607.1875 555.28125 C 662.89008 556.34124 548.91198 522.61869 603.6875 516.5625 C 638.58032 495.2178 678.2176 562.00627 708.5 519.5625 C 722.65634 468.91128 661.9808 487.07426 637.46875 502.46875 C 604.63321 504.02187 577.09219 466.05593 547.28125 451.09375 C 581.80886 434.2437 616.67823 418.10609 651.1875 401.21875 C 692.2991 399.63417 697.89862 329.87362 652.15625 340.90625 C 604.48235 366.5441 560.88044 399.25353 514.46875 427.125 C 492.88599 425.55887 469.83557 401.90357 448.53125 392.21875 C 505.37664 348.12375 564.27843 306.48383 622.34375 263.90625 C 659.29696 254.53342 662.81455 183.24864 615.15625 205.15625 C 550.37357 260.06082 489.638 320.12551 425.1875 375.59375 C 401.65676 365.96152 415.94917 306.98618 428.9375 283.4375 C 469.70746 229.31276 515.97785 179.41756 558.8125 126.875 C 577.8828 102.00208 598.40518 77.839737 628.75 66.78125 C 643.59094 61.348702 655.46099 54.314408 650.4375 36.4375 C 668.66415 8.746621 633.89675 14.698583 619.21875 0 z M 236.90625 773.09375 C 251.7235 778.57332 266.78362 783.22811 282.03125 787.25 C 299.90378 756.85528 312.59375 733.81838 312.59375 724.90625 C 312.59375 713.65626 297.30624 710.96875 291.90625 710.96875 C 289.20625 710.96875 286.9625 711.875 286.0625 711.875 C 274.88177 717.68038 255.67062 743.92397 236.90625 773.09375 z M 282.03125 787.25 C 274.3675 800.28327 265.71807 814.75065 256.71875 830 C 299.79397 840.06376 344.1266 846.06021 387.21875 851.875 C 408.56193 860.09851 440.87582 828.54114 416.3125 812.65625 C 371.53388 805.39814 326.06759 798.86554 282.03125 787.25 z M 256.71875 830 C 240.93432 826.31225 225.32421 822.06671 210 817.09375 C 200.46887 833.38192 192.49547 847.703 187.9375 856.3125 C 169.93752 890.51247 124.94998 960.71877 108.75 980.96875 C 102.90001 966.56876 94.806242 925.1562 87.15625 877.90625 C 74.556263 796.45633 61.9375 759.56249 61.9375 746.0625 C 61.9375 743.8125 62.84375 742.925 62.84375 741.125 C 62.84375 734.37501 55.643748 734.375 53.84375 734.375 C 48.893755 730.775 50.237482 705.125 32.6875 705.125 C 27.287505 705.125 3 711.86252 3 734.8125 C 3 752.36248 16.056251 767.65626 17.40625 776.65625 C 17.40625 776.20625 17.84375 775.75 17.84375 775.75 C 17.84375 790.14999 22.800005 818.51253 27.75 845.0625 L 51.15625 969.25 C 63.756237 1036.7499 69.162526 1049.375 94.8125 1049.375 C 111.91248 1049.375 127.18753 1029.55 156.4375 989.5 C 180.28748 956.65003 209.55626 912.99998 222.15625 890.5 C 233.51786 869.62922 245.37675 849.21903 256.71875 830 z M 399.40625 317.84375 C 399.9562 317.79893 400.49891 317.88609 401.03125 318.125 C 398.57402 332.4568 398.53683 347.07355 397.65625 361.5625 C 374.38685 375.21732 388.22396 318.75515 399.40625 317.84375 z M 401.09375 370.5 C 405.04926 369.85415 419.29659 389.09164 424.5625 382.5 C 455.7529 388.41036 427.32084 400.5571 424.40625 414.8125 L 424.71875 420.09375 C 401.22508 412.22478 401.32901 402.50679 402.34375 383.125 C 399.59691 374.04804 399.54594 370.75272 401.09375 370.5 z M 338.59375 373.84375 C 311.17182 407.03865 285.54567 441.89623 261.5625 477.65625 C 269.82819 471.70586 278.73205 457.8085 287.09375 449.1875 C 298.98145 424.92796 348.41029 395.94594 338.59375 373.84375 z M 380.5625 394.59375 C 383.4658 394.42218 387.71226 396.84158 393.5 403.65625 C 378.19917 435.50017 369.17264 395.26684 380.5625 394.59375 z M 407.9375 422 C 411.91486 439.49024 452.24273 474.82257 423.125 486 C 401.21605 510.1042 395.98218 467.70352 387.3125 454.25 C 373.955 437.50038 396.22014 430.1042 407.9375 422 z M 432.25 427.59375 C 445.13265 426.987 489.83573 455.09532 462.34375 460.9375 C 444.72708 480.24548 442.44583 450.59604 433.84375 439.65625 C 427.21562 431.18206 427.95578 427.796 432.25 427.59375 z M 509.75 433.125 C 525.40192 432.20044 548.0687 457.35434 522.1875 461.34375 C 487.85476 478.47638 553.88837 497.08002 568.09375 514.8125 C 598.44632 527.43392 558.53712 532.84008 545.375 540.21875 C 521.68871 553.72052 502.89921 522.15353 485.09375 511.03125 C 451.22527 491.99909 483.77028 480.45805 504.25 470.75 C 482.49623 459.53929 472.76565 445.69844 502.125 436.625 C 504.1915 434.36736 506.8515 433.29622 509.75 433.125 z M 232.5 495.40625 C 197.35308 516.46989 169.63516 554.06821 164.78125 595.4375 C 159.03157 631.56627 182.4423 668.96539 219.125 675.78125 C 258.22703 683.80336 302.87956 669.47926 331.5 642.375 C 305.26742 628.02035 272.84841 615.03825 254.9375 587.28125 C 229.93568 562.21977 239.8322 518.78842 232.5 495.40625 z M 448.8125 499.34375 C 452.39762 499.50155 455.52607 500.83454 457.5 503.71875 C 464.49263 524.40638 530.55594 547.53329 499.125 559.3125 C 474.08193 575.66126 452.55261 541.97795 434.3125 528.375 C 409.25567 519.65491 433.27699 498.65994 448.8125 499.34375 z M 221.78125 521.96875 C 221.72287 565.54723 248.02839 607.86486 285.21875 631.3125 C 326.58924 641.37966 286.38081 656.00465 267.25 659.9375 C 239.41806 667.76755 204.8194 663.7987 187.71875 637.625 C 165.2182 598.10084 190.60064 548.68324 221.78125 521.96875 z "
       id="path3077-2" />
  </g>
  <g
     inkscape:groupmode="layer"
     id="layer4"
     inkscape:label="ollado">
    <text
       xml:space="preserve"
       style="font-size:100px;font-style:italic;font-variant:normal;font-weight:normal;font-stretch:normal;line-height:125%;letter-spacing:0px;word-spacing:0px;fill:#808080;fill-opacity:1;stroke:none;font-family:FreeSans;-inkscape-font-specification:Sans Italic"
       x="425.71429"
       y="852.36218"
       id="text3123"
       sodipodi:linespacing="125%"><tspan
         sodipodi:role="line"
         id="tspan3125"
         x="425.71429"
         y="852.36218">ollado</tspan></text>
  </g>
  <g
     inkscape:groupmode="layer"
     id="layer6"
     inkscape:label="illalba">
    <text
       xml:space="preserve"
       style="font-size:100px;font-style:italic;font-variant:normal;font-weight:normal;font-stretch:normal;line-height:125%;letter-spacing:0px;word-spacing:0px;fill:#808080;fill-opacity:1;stroke:none;font-family:FreeSans;-inkscape-font-specification:Sans"
       x="159.42859"
       y="1049.6022"
       id="text3139"
       sodipodi:linespacing="125%"><tspan
         sodipodi:role="line"
         id="tspan3141"
         x="159.42859"
         y="1049.6022">illalba</tspan></text>
  </g>
  <g
     inkscape:groupmode="layer"
     id="layer7"
     inkscape:label="Badminton">
    <text
       xml:space="preserve"
       style="font-size:100px;font-style:italic;font-variant:normal;font-weight:normal;font-stretch:normal;line-height:125%;letter-spacing:0px;word-spacing:0px;fill:#808080;fill-opacity:1;stroke:none;font-family:FreeSans;-inkscape-font-specification:Sans"
       x="-8"
       y="74"
       id="text3144"
       sodipodi:linespacing="125%"><tspan
         sodipodi:role="line"
         id="tspan3146"
         x="-8"
         y="74">Bádminton</tspan></text>
  </g>
  <g
     inkscape:groupmode="layer"
     id="layer8"
     inkscape:label="Cruce"
     style="display:none">
    <path
       style="fill:#ffffff;fill-opacity:1;display:inline"
       d="m 236.15625,772.625 c -9.42744,14.50784 -18.81132,29.85245 -27.125,43.96875 15.31153,5.02367 30.90735,9.30637 46.6875,13.03125 9.0473,-15.30098 17.73079,-29.8369 25.3125,-42.78125 -15.15797,-4.04188 -30.14836,-8.71946 -44.875,-14.21875 z"
       id="path3077-2-9"
       inkscape:connector-curvature="0" />
  </g>
</svg>
